<svg id="Layer_1" data-name="Layer 1" xmlns="http://www.w3.org/2000/svg" viewBox="0 0 100 100"><title>icon-black</title><path id="_Compound_Path_" data-name="&lt;Compound Path&gt;" d="M197.72,113A21.17,21.17,0,0,0,184.29,101,43.54,43.54,0,0,0,172.2,99.7h-45A43.54,43.54,0,0,0,115.11,101,21.17,21.17,0,0,0,101.68,113c-2,5-2,10.62-2,14.17v45c0,3.55,0,9.2,2,14.17a21.17,21.17,0,0,0,13.44,12.05,43.54,43.54,0,0,0,12.09,1.27h45a43.54,43.54,0,0,0,12.09-1.27,21.17,21.17,0,0,0,13.44-12.05c2-5,2-10.62,2-14.17v-45C199.7,123.64,199.68,118,197.72,113Zm-25.07,55.45a9.27,9.27,0,0,1-1.46,3.43,8.72,8.72,0,0,1-2.74,2.53A10.91,10.91,0,0,1,165,175.7a13.29,13.29,0,0,1-5.36.27,7.47,7.47,0,0,1-3.61-1.83,7.77,7.77,0,0,1-.39-11.17,8.67,8.67,0,0,1,3.24-2.09,33.93,33.93,0,0,1,5.5-1.39l1.94-.39a3.37,3.37,0,0,0,2.17-1.11,3.63,3.63,0,0,0,.6-2.47v-22c0-1.69-.76-2.14-2.37-1.84l-25.86,5.21c-1.39.34-1.88.79-1.88,2.52v32.29a17,17,0,0,1-.33,3.66,9.28,9.28,0,0,1-1.46,3.43,8.72,8.72,0,0,1-2.74,2.53,10.94,10.94,0,0,1-3.47,1.28,13.29,13.29,0,0,1-5.36.27A7.49,7.49,0,0,1,122,181a7.91,7.91,0,0,1-.39-11.17,8.66,8.66,0,0,1,3.24-2.09,33.94,33.94,0,0,1,5.5-1.39l1.94-.39a3.37,3.37,0,0,0,2.17-1.11,3.64,3.64,0,0,0,.66-2.45V125.22a6.56,6.56,0,0,1,.07-1,3,3,0,0,1,1-1.93,4.15,4.15,0,0,1,1.85-.83h0l29.72-6c.26-.05,2.41-.43,2.65-.45,1.61-.14,2.51.92,2.51,2.63V164.8A17.1,17.1,0,0,1,172.65,168.48Z" transform="translate(-99.7 -99.7)"/></svg>