<?xml version="1.0" encoding="utf-8"?>
<!-- Generator: Adobe Illustrator 19.2.1, SVG Export Plug-In . SVG Version: 6.00 Build 0)  -->
<svg version="1.1" id="outline" xmlns="http://www.w3.org/2000/svg" xmlns:xlink="http://www.w3.org/1999/xlink" x="0px" y="0px"
	 width="106.5299988px" height="23.7700005px" viewBox="0 0 106.5299988 23.7700005"
	 enable-background="new 0 0 106.5299988 23.7700005" xml:space="preserve">
<g id="XMLID_1_">
	<g id="XMLID_2_">
		<g id="XMLID_3_">
			<path id="XMLID_4_" fill="#FFFFFF" d="M29.4696045,6.4085083h-3.2133789V1.2561646h0.7998047v4.4169922h2.4135742V6.4085083z"/>
			<path id="XMLID_6_" fill="#FFFFFF" d="M30.3929443,1.3704224c0-0.2675781,0.2104492-0.4716797,0.4960938-0.4716797
				s0.496582,0.2041016,0.496582,0.4716797c0,0.2636719-0.2109375,0.4677734-0.496582,0.4677734
				S30.3929443,1.6340942,30.3929443,1.3704224z M30.5072021,2.5198364h0.7641602v3.8886719h-0.7641602V2.5198364z"/>
			<path id="XMLID_9_" fill="#FFFFFF" d="M33.927124,2.4446411c0.875,0,1.4462891,0.4072266,1.5209961,1.0927734h-0.7353516
				c-0.0712891-0.2851562-0.3500977-0.4677734-0.7856445-0.4677734c-0.4282227,0-0.753418,0.2041016-0.753418,0.5068359
				c0,0.2324219,0.1962891,0.3789062,0.6176758,0.4755859l0.6464844,0.1494141
				c0.7392578,0.171875,1.0854492,0.4892578,1.0854492,1.0605469c0,0.7324219-0.6821289,1.2216797-1.6103516,1.2216797
				c-0.9248047,0-1.5283203-0.4179688-1.5961914-1.1074219h0.7675781c0.0966797,0.2998047,0.3823242,0.4853516,0.8461914,0.4853516
				c0.4785156,0,0.8178711-0.2138672,0.8178711-0.5244141c0-0.2324219-0.1821289-0.3818359-0.5712891-0.4746094
				l-0.6782227-0.1572266c-0.7392578-0.1748047-1.0820312-0.5068359-1.0820312-1.0859375
				C32.4168701,2.9309692,33.0487061,2.4446411,33.927124,2.4446411z"/>
			<path id="XMLID_11_" fill="#FFFFFF" d="M37.5613937,1.552063v0.9853516h0.8422928v0.6464844h-0.8422928v2
				c0,0.40625,0.1674881,0.5849609,0.5498123,0.5849609c0.1176758,0,0.1855469-0.0068359,0.2924805-0.0175781v0.6386719
				c-0.125,0.0214844-0.2675781,0.0400391-0.4174805,0.0400391c-0.8535156,0-1.1928711-0.2998047-1.1928711-1.0498047V3.1838989
				h-0.6176758V2.5374146h0.6176758V1.552063H37.5613937z"/>
			<path id="XMLID_13_" fill="#FFFFFF" d="M42.6575928,5.3587036c-0.175293,0.6962891-0.7963867,1.125-1.6855469,1.125
				c-1.1137695,0-1.7958984-0.7646484-1.7958984-2.0068359c0-1.2431641,0.6962891-2.0322266,1.7924805-2.0322266
				c1.081543,0,1.7353516,0.7392578,1.7353516,1.9609375v0.2675781h-2.7460938v0.0429688
				c0.0249023,0.6816406,0.4213867,1.1132812,1.0356445,1.1132812c0.4643555,0,0.7817383-0.1669922,0.9248047-0.4707031H42.6575928z
				 M39.9578857,4.1047974h1.9638672c-0.0175781-0.6103516-0.3891602-1.0068359-0.9570312-1.0068359
				C40.3973389,3.0979614,40.0008545,3.4983521,39.9578857,4.1047974z"/>
			<path id="XMLID_17_" fill="#FFFFFF" d="M43.727417,2.5198364h0.7387695v0.6181641h0.0571289
				c0.1894531-0.4326172,0.5751953-0.6933594,1.1606445-0.6933594c0.8676758,0,1.3461914,0.5214844,1.3461914,1.4462891v2.5175781
				h-0.7675781V4.0842896c0-0.625-0.2714844-0.9355469-0.8393555-0.9355469c-0.5673828,0-0.9282227,0.3779297-0.9282227,0.9853516
				v2.2744141H43.727417V2.5198364z"/>
			<path id="XMLID_19_" fill="#FFFFFF" d="M50.1234131,4.4622192c0-1.2529297,0.699707-2.0175781,1.8349609-2.0175781
				c1.1323242,0,1.8320312,0.7646484,1.8320312,2.0175781c0,1.2607422-0.6962891,2.0214844-1.8320312,2.0214844
				C50.8197021,6.4837036,50.1234131,5.7229614,50.1234131,4.4622192z M53.0013428,4.4622192
				c0-0.8427734-0.378418-1.3349609-1.0429688-1.3349609c-0.6674805,0-1.0424805,0.4921875-1.0424805,1.3349609
				c0,0.8496094,0.375,1.3388672,1.0424805,1.3388672C52.6229248,5.8010864,53.0013428,5.3088989,53.0013428,4.4622192z"/>
			<path id="XMLID_22_" fill="#FFFFFF" d="M54.8133545,2.5198364h0.7387695v0.6181641h0.0571289
				c0.1894531-0.4326172,0.5751953-0.6933594,1.1606445-0.6933594c0.8676758,0,1.3461914,0.5214844,1.3461914,1.4462891v2.5175781
				h-0.7675781V4.0842896c0-0.625-0.2714844-0.9355469-0.8393555-0.9355469c-0.5673828,0-0.9282227,0.3779297-0.9282227,0.9853516
				v2.2744141h-0.7675781V2.5198364z"/>
		</g>
		<g id="XMLID_450_">
			<g id="XMLID_25_">
				<path id="XMLID_26_" fill="#FFFFFF" d="M32.4569092,17.3655396h-4.0283203l-0.9667969,2.8564453h-1.706543l3.815918-10.5683594
					h1.7724609l3.815918,10.5683594h-1.7358398L32.4569092,17.3655396z M28.8460693,16.0471802h3.1933594l-1.574707-4.6357422
					h-0.0439453L28.8460693,16.0471802z"/>
				<path id="XMLID_29_" fill="#FFFFFF" d="M43.3919678,16.3694458c0,2.3955078-1.2817383,3.9335938-3.215332,3.9335938
					c-1.0986328,0-1.9702148-0.4912109-2.4243164-1.3476562h-0.0366211v3.8154297H36.133667V12.5169067h1.5307617v1.2822266
					h0.0292969c0.4394531-0.828125,1.3769531-1.3623047,2.4536133-1.3623047
					C42.1029053,12.4368286,43.3919678,13.9817505,43.3919678,16.3694458z M41.7659912,16.3694458
					c0-1.5595703-0.8056641-2.5849609-2.0361328-2.5849609c-1.2084961,0-2.0214844,1.046875-2.0214844,2.5849609
					c0,1.5527344,0.8129883,2.5927734,2.0214844,2.5927734C40.9603271,18.9622192,41.7659912,17.9446411,41.7659912,16.3694458z"/>
				<path id="XMLID_40_" fill="#FFFFFF" d="M51.8660889,16.3694458c0,2.3955078-1.2817383,3.9335938-3.215332,3.9335938
					c-1.0986328,0-1.9702148-0.4912109-2.4243164-1.3476562h-0.0366211v3.8154297h-1.5820312V12.5169067h1.5307617v1.2822266
					h0.0292969c0.4394531-0.828125,1.3769531-1.3623047,2.4536133-1.3623047
					C50.5770264,12.4368286,51.8660889,13.9817505,51.8660889,16.3694458z M50.2401123,16.3694458
					c0-1.5595703-0.8056641-2.5849609-2.0361328-2.5849609c-1.2084961,0-2.0214844,1.046875-2.0214844,2.5849609
					c0,1.5527344,0.8129883,2.5927734,2.0214844,2.5927734C49.4344482,18.9622192,50.2401123,17.9446411,50.2401123,16.3694458z"/>
				<path id="XMLID_44_" fill="#FFFFFF" d="M53.1405029,9.6536255h1.5820312v10.5683594h-1.5820312V9.6536255z"/>
				<path id="XMLID_46_" fill="#FFFFFF" d="M62.9549561,17.9592896c-0.2124023,1.3984375-1.574707,2.3583984-3.3178711,2.3583984
					c-2.2412109,0-3.6328125-1.5019531-3.6328125-3.9111328c0-2.4169922,1.3989258-3.984375,3.5668945-3.984375
					c2.1313477,0,3.4716797,1.4648438,3.4716797,3.8007812v0.5419922h-5.4418945v0.0957031
					c0,1.3183594,0.8276367,2.1826172,2.0727539,2.1826172c0.8789062,0,1.5673828-0.4179688,1.7797852-1.0839844H62.9549561z
					 M57.6082764,15.6594849h3.8525391c-0.0366211-1.1796875-0.7910156-1.9560547-1.8896484-1.9560547
					C58.4798584,13.7034302,57.6888428,14.4944458,57.6082764,15.6594849z"/>
				<path id="XMLID_49_" fill="#FFFFFF" d="M76.6883545,20.2219849v-7.7783203h-0.0517578l-3.1855469,7.6982422h-1.2158203
					l-3.1933594-7.6982422h-0.0517578v7.7783203h-1.4941406V9.6536255h1.8974609l3.4199219,8.3417969h0.0585938l3.4130859-8.3417969
					h1.9042969v10.5683594H76.6883545z"/>
				<path id="XMLID_51_" fill="#FFFFFF" d="M86.6141357,20.2219849h-1.5166016v-1.3251953h-0.0361404
					c-0.4394455,0.9228516-1.2089767,1.4130859-2.3876877,1.4130859c-1.6777344,0-2.703125-1.0839844-2.703125-2.8486328v-4.9443359
					h1.5820312v4.6367188c0,1.171875,0.5566406,1.7939453,1.6484375,1.7939453c1.1425781,0,1.8310547-0.7910156,1.8310547-1.9921875
					v-4.4384766h1.5820312V20.2219849z"/>
				<path id="XMLID_53_" fill="#FFFFFF" d="M91.1121826,12.4290161c1.7070312,0,2.9296875,0.9453125,2.9667969,2.3076172h-1.4873047
					c-0.0654297-0.6816406-0.6445312-1.0986328-1.5234375-1.0986328c-0.8564453,0-1.4277344,0.3955078-1.4277344,0.9960938
					c0,0.4609375,0.3808594,0.7685547,1.1787109,0.9667969l1.296875,0.2998047
					c1.5527344,0.3740234,2.1386719,0.9453125,2.1386719,2.0732422c0,1.3916016-1.318367,2.34375-3.2011719,2.34375
					c-1.8164062,0-3.0390625-0.9306641-3.15625-2.3369141h1.5673828c0.109375,0.7402344,0.703125,1.1357422,1.6621094,1.1357422
					c0.9453125,0,1.5380859-0.3886719,1.5380859-1.0039062c0-0.4755859-0.2929688-0.7324219-1.0986328-0.9375l-1.3769531-0.3369141
					c-1.3916016-0.3369141-2.0947266-1.046875-2.0947266-2.1162109
					C88.0946045,13.3596802,89.3182373,12.4290161,91.1121826,12.4290161z"/>
				<path id="XMLID_55_" fill="#FFFFFF" d="M95.4862061,10.4885864c0-0.5058594,0.4101562-0.9082031,0.9160156-0.9082031
					c0.5126953,0,0.9228516,0.4023438,0.9228516,0.9082031c0,0.4980469-0.4101562,0.9003906-0.9228516,0.9003906
					C95.8963623,11.3889771,95.4862061,10.9866333,95.4862061,10.4885864z M95.6112061,12.5169067h1.5820312v7.7050781h-1.5820312
					V12.5169067z"/>
				<path id="XMLID_58_" fill="#FFFFFF" d="M104.0067139,15.1682739c-0.1386719-0.8125-0.7763672-1.4208984-1.8164062-1.4208984
					c-1.2158203,0-2.0214844,1.0185547-2.0214844,2.6220703c0,1.640625,0.8134766,2.6298828,2.0361328,2.6298828
					c0.9814377,0,1.6259766-0.4912109,1.8017578-1.3847656h1.5234375c-0.1757812,1.6191406-1.4716797,2.703125-3.3398438,2.703125
					c-2.1972656,0-3.6328125-1.5019531-3.6328125-3.9482422c0-2.3945312,1.4355469-3.9472656,3.6181641-3.9472656
					c1.9775391,0,3.2080078,1.2451172,3.3398438,2.7460938H104.0067139z"/>
			</g>
		</g>
	</g>
	<path id="XMLID_24_" fill="#FFFFFF" d="M20.9755249,2.8516235c-0.2079468-0.5283813-0.6879883-1.2722778-1.3685913-1.7963867
		c-0.3930054-0.3026123-0.8621826-0.5919189-1.5065918-0.7828979C17.4133301,0.0687866,16.5671997,0,15.5140991,0H5.8847046
		C4.831604,0,3.9854736,0.0687866,3.2984619,0.2723389c-0.6444702,0.190979-1.1135864,0.4802856-1.5065918,0.7828979
		c-0.680603,0.5241089-1.1606445,1.2680054-1.3685913,1.7963867C0.0042725,3.9161377,0,5.1240234,0,5.8846436v9.6294556
		c0,0.7606201,0.0042725,1.9685059,0.4232788,3.03302c0.2079468,0.5283813,0.6879883,1.2722778,1.3685913,1.7963867
		c0.3930054,0.3026123,0.8621216,0.5919189,1.5065918,0.7828979c0.6870117,0.2035522,1.5331421,0.2723389,2.5862427,0.2723389
		h9.6293945c1.0531006,0,1.899231-0.0687866,2.5862427-0.2723389c0.6444092-0.190979,1.1135864-0.4802856,1.5065918-0.7828979
		c0.680603-0.5241089,1.1606445-1.2680054,1.3685913-1.7963867c0.4190063-1.0645142,0.4232178-2.2723999,0.4232178-3.03302
		V5.8846436C21.3987427,5.1240234,21.3945312,3.9161377,20.9755249,2.8516235z M15.6104126,14.7178345
		c-0.0552979,0.2633057-0.156189,0.5110474-0.3117065,0.7341309c-0.1550293,0.2224121-0.3538208,0.4046631-0.5854492,0.5414429
		c-0.2345581,0.1384888-0.4805298,0.2172852-0.7432251,0.2702637c-0.493103,0.0994263-0.8305664,0.1218872-1.147522,0.0581055
		c-0.3057861-0.0614624-0.5649414-0.2020264-0.7720947-0.3920288c-0.3070679-0.2815552-0.4984741-0.6619263-0.5402832-1.0594482
		c-0.0490112-0.4658813,0.1061401-0.963562,0.4559326-1.3302002c0.1765137-0.1849365,0.3982544-0.3312988,0.6942139-0.446167
		c0.3097534-0.1201782,0.6516113-0.1919556,1.177063-0.2979126c0.1383667-0.0278931,0.2767944-0.0557861,0.4152222-0.0837402
		c0.1820679-0.0366211,0.3381348-0.083252,0.4639893-0.2370605c0.1268311-0.1549683,0.1288452-0.3406372,0.1288452-0.5275879
		L14.84552,7.2318726c0-0.3606567-0.1617432-0.4589233-0.5061646-0.3927612
		c-0.2461548,0.0480347-5.532959,1.1142578-5.532959,1.1142578C8.5081787,8.0253906,8.4033813,8.1228638,8.4033813,8.4928589
		l0.0001221,6.90979c0,0.2709351-0.0141602,0.5112915-0.071167,0.7826538
		c-0.0553589,0.2633667-0.15625,0.5111084-0.3117676,0.7341919c-0.1550293,0.2224121-0.3538208,0.4046631-0.5854492,0.5413818
		c-0.2344971,0.1384888-0.4805298,0.2212524-0.7432251,0.274231c-0.493103,0.0994263-0.8305054,0.1218872-1.147522,0.0581055
		c-0.3057251-0.0614014-0.5648804-0.2059326-0.7720947-0.3959351c-0.3070068-0.2815552-0.4859009-0.6619263-0.52771-1.0594482
		c-0.0490112-0.4658813,0.0935669-0.963562,0.4434204-1.3302002c0.1765137-0.1849976,0.3981934-0.3312988,0.6941528-0.446167
		c0.3098145-0.1201782,0.6516113-0.1919556,1.177063-0.2979126c0.1383667-0.0278931,0.2768555-0.0557861,0.4152222-0.0837402
		c0.1820679-0.0366821,0.3381958-0.083252,0.4639893-0.2370605c0.1259155-0.1538086,0.1403198-0.3381958,0.1403198-0.5239258
		c0-1.4621582,0-7.9577026,0-7.9577026c0-0.1072388,0.0093384-0.1785889,0.0147705-0.2144775
		c0.0254517-0.1674805,0.0927124-0.3111572,0.2139893-0.4129639c0.100769-0.0846558,0.2304688-0.1429443,0.3964844-0.1782837
		l0.0024414-0.0004883l6.3601074-1.2832031c0.0551758-0.0112305,0.5148315-0.0928345,0.5665283-0.0973511
		c0.34375-0.0296631,0.5368042,0.1960449,0.5368042,0.5623779l0.0003052,10.0947266
		C15.670166,14.2023926,15.6674194,14.4464111,15.6104126,14.7178345z"/>
</g>
<g>
</g>
<g>
</g>
<g>
</g>
<g>
</g>
<g>
</g>
<g>
</g>
</svg>
