<svg xmlns="http://www.w3.org/2000/svg" width="106.53" height="23.77"><g fill="#FFF"><path d="M29.47 6.409h-3.214V1.256h.8v4.417h2.414v.736zM30.393 1.37c0-.267.21-.471.496-.471s.497.204.497.471c0 .264-.211.468-.497.468s-.496-.204-.496-.468zm.114 1.15h.764v3.889h-.764v-3.89zM33.927 2.445c.875 0 1.446.407 1.521 1.092h-.735c-.072-.285-.35-.467-.786-.467-.428 0-.753.204-.753.506 0 .233.196.38.617.476l.647.15c.74.171 1.085.489 1.085 1.06 0 .732-.682 1.222-1.61 1.222-.925 0-1.528-.418-1.596-1.108h.767c.097.3.383.486.847.486.478 0 .817-.214.817-.525 0-.232-.182-.382-.57-.474l-.68-.158c-.738-.174-1.081-.506-1.081-1.086 0-.688.632-1.174 1.51-1.174zM37.561 1.552v.985h.843v.647h-.843v2c0 .406.168.585.55.585.118 0 .186-.007.293-.018v.639c-.125.021-.268.04-.418.04-.853 0-1.193-.3-1.193-1.05V3.184h-.617v-.647h.617v-.985h.768zM42.658 5.359c-.176.696-.797 1.125-1.686 1.125-1.114 0-1.796-.765-1.796-2.007 0-1.243.696-2.032 1.793-2.032 1.081 0 1.735.739 1.735 1.96v.268h-2.746v.043c.025.682.421 1.113 1.036 1.113.464 0 .781-.167.924-.47h.74zm-2.7-1.254h1.964c-.018-.61-.39-1.007-.957-1.007-.568 0-.964.4-1.007 1.007zM43.727 2.52h.74v.618h.056c.19-.433.576-.693 1.161-.693.868 0 1.346.521 1.346 1.446v2.518h-.767V4.084c0-.625-.272-.935-.84-.935-.567 0-.928.378-.928.985V6.41h-.768v-3.89zM50.123 4.462c0-1.253.7-2.017 1.835-2.017 1.133 0 1.832.764 1.832 2.017 0 1.261-.696 2.022-1.832 2.022-1.138 0-1.835-.761-1.835-2.022zm2.878 0c0-.843-.378-1.335-1.043-1.335-.667 0-1.042.492-1.042 1.335 0 .85.375 1.34 1.042 1.34.665 0 1.043-.493 1.043-1.34zM54.813 2.52h.74v.618h.056c.19-.433.575-.693 1.16-.693.869 0 1.347.521 1.347 1.446v2.518h-.767V4.084c0-.625-.272-.935-.84-.935-.567 0-.928.378-.928.985V6.41h-.768v-3.89z"/></g><g fill="#FFF"><path d="M32.457 17.366h-4.028l-.967 2.856h-1.707l3.816-10.568h1.773l3.816 10.568h-1.736l-.967-2.856zm-3.61-1.319h3.192l-1.574-4.636h-.044l-1.575 4.636zM43.392 16.37c0 2.395-1.282 3.933-3.215 3.933-1.099 0-1.97-.491-2.425-1.348h-.036v3.816h-1.582V12.517h1.53v1.282h.03c.44-.828 1.377-1.362 2.453-1.362 1.956 0 3.245 1.545 3.245 3.932zm-1.626 0c0-1.56-.806-2.586-2.036-2.586-1.209 0-2.022 1.047-2.022 2.585 0 1.553.813 2.593 2.022 2.593 1.23 0 2.036-1.017 2.036-2.593zM51.866 16.37c0 2.395-1.282 3.933-3.215 3.933-1.099 0-1.97-.491-2.425-1.348h-.036v3.816h-1.582V12.517h1.53v1.282h.03c.44-.828 1.377-1.362 2.453-1.362 1.956 0 3.245 1.545 3.245 3.932zm-1.626 0c0-1.56-.806-2.586-2.036-2.586-1.209 0-2.022 1.047-2.022 2.585 0 1.553.813 2.593 2.022 2.593 1.23 0 2.036-1.017 2.036-2.593zM53.14 9.654h1.583v10.568H53.14V9.654zM62.955 17.96c-.212 1.398-1.575 2.358-3.318 2.358-2.241 0-3.633-1.502-3.633-3.911 0-2.417 1.4-3.985 3.567-3.985 2.132 0 3.472 1.465 3.472 3.801v.542H57.6v.096c0 1.318.828 2.182 2.073 2.182.879 0 1.567-.418 1.78-1.084h1.501zm-5.347-2.3h3.853c-.037-1.18-.791-1.957-1.89-1.957-1.091 0-1.882.791-1.963 1.956zM76.688 20.222v-7.778h-.051l-3.186 7.698h-1.216l-3.193-7.698h-.052v7.778h-1.494V9.654h1.897l3.42 8.341h.059l3.413-8.341h1.904v10.568h-1.5zM86.614 20.222h-1.516v-1.325h-.037c-.44.923-1.209 1.413-2.387 1.413-1.678 0-2.703-1.084-2.703-2.849v-4.944h1.582v4.637c0 1.172.556 1.794 1.648 1.794 1.143 0 1.831-.791 1.831-1.993v-4.438h1.582v7.705zM91.112 12.429c1.707 0 2.93.945 2.967 2.308h-1.487c-.066-.682-.645-1.099-1.524-1.099-.856 0-1.427.396-1.427.996 0 .461.38.769 1.178.967l1.297.3c1.553.374 2.139.945 2.139 2.073 0 1.392-1.319 2.344-3.201 2.344-1.817 0-3.04-.931-3.157-2.337h1.568c.11.74.703 1.136 1.662 1.136.945 0 1.538-.39 1.538-1.004 0-.476-.293-.733-1.099-.938l-1.377-.337c-1.391-.337-2.094-1.047-2.094-2.116 0-1.362 1.223-2.293 3.017-2.293zM95.486 10.489a.91.91 0 0 1 .916-.909c.513 0 .923.403.923.909 0 .498-.41.9-.923.9a.908.908 0 0 1-.916-.9zm.125 2.028h1.582v7.705h-1.582v-7.705zM104.007 15.168c-.139-.812-.777-1.42-1.817-1.42-1.216 0-2.021 1.018-2.021 2.621 0 1.641.813 2.63 2.036 2.63.981 0 1.626-.49 1.802-1.384h1.523c-.176 1.619-1.472 2.703-3.34 2.703-2.197 0-3.633-1.502-3.633-3.949 0-2.394 1.436-3.947 3.619-3.947 1.977 0 3.208 1.245 3.34 2.746h-1.51z"/></g><path fill="#FFF" d="M20.976 2.852A4.523 4.523 0 0 0 18.1.272C17.413.07 16.567 0 15.514 0h-9.63C4.833 0 3.986.069 3.299.272a4.523 4.523 0 0 0-2.875 2.58C.004 3.916 0 5.124 0 5.885v9.63c0 .76.004 1.968.423 3.032a4.523 4.523 0 0 0 2.875 2.58c.687.203 1.534.272 2.587.272h9.63c1.052 0 1.898-.069 2.585-.273a4.523 4.523 0 0 0 2.875-2.58c.42-1.063.424-2.271.424-3.032v-9.63c0-.76-.004-1.968-.423-3.032zM15.61 14.718a1.984 1.984 0 0 1-.311.734 1.867 1.867 0 0 1-.586.541c-.234.139-.48.218-.743.27-.493.1-.83.123-1.147.059a1.598 1.598 0 0 1-.773-.392 1.685 1.685 0 0 1-.54-1.06 1.686 1.686 0 0 1 .456-1.33c.177-.185.398-.331.694-.446.31-.12.652-.192 1.177-.298l.416-.084c.182-.036.338-.083.464-.237.126-.155.128-.34.128-.527V7.232c0-.36-.161-.46-.506-.393-.246.048-5.533 1.114-5.533 1.114-.298.072-.403.17-.403.54v6.91c0 .27-.014.51-.07.782a1.985 1.985 0 0 1-.312.734 1.866 1.866 0 0 1-.586.542c-.234.138-.48.221-.743.274-.493.1-.83.122-1.148.058a1.604 1.604 0 0 1-.772-.396 1.67 1.67 0 0 1-.527-1.06 1.676 1.676 0 0 1 .443-1.33c.177-.184.398-.33.694-.446.31-.12.652-.191 1.177-.297l.415-.084c.182-.037.339-.083.464-.237.126-.154.14-.338.14-.524V5.46c0-.107.01-.178.016-.214a.647.647 0 0 1 .213-.413c.101-.085.231-.143.397-.179h.002l6.36-1.283c.056-.012.515-.093.567-.098.344-.03.537.196.537.563V13.93c0 .271-.003.515-.06.787z"/></svg>